# Blender v3.1.2 OBJ File: ''
# www.blender.org
mtllib building.mtl
o 立方体_立方体.002
v -5.000000 0.000000 5.000000
v -5.000000 30.000000 5.000000
v -5.000000 0.000000 -5.000000
v -5.000000 30.000000 -5.000000
v 5.000000 0.000000 5.000000
v 5.000000 30.000000 5.000000
v 5.000000 0.000000 -5.000000
v 5.000000 30.000000 -5.000000
vt 0.375005 0.000006
vt 0.625014 0.999994
vt 0.375010 1.000001
vt 0.375002 0.000004
vt 0.625010 0.999995
vt 0.375017 0.999999
vt 0.375007 0.000007
vt 0.625009 0.999998
vt 0.375012 1.000001
vt 0.375007 0.000003
vt 0.625010 0.999995
vt 0.375015 0.999998
vt 0.254085 0.748031
vt 0.004085 0.998031
vt 0.004085 0.748031
vt 0.992815 0.003937
vt 0.742815 0.253937
vt 0.742815 0.003937
vt 0.624984 0.000009
vt 0.624986 0.000010
vt 0.624986 0.000008
vt 0.624987 0.000013
vt 0.254085 0.998031
vt 0.992815 0.253937
vn -1.0000 0.0000 0.0000
vn 0.0000 0.0000 -1.0000
vn 1.0000 0.0000 0.0000
vn 0.0000 0.0000 1.0000
vn 0.0000 -1.0000 0.0000
vn 0.0000 1.0000 0.0000
usemtl マテリアル.001
s off
f 2/1/1 3/2/1 1/3/1
f 4/4/2 7/5/2 3/6/2
f 8/7/3 5/8/3 7/9/3
f 6/10/4 1/11/4 5/12/4
f 7/13/5 1/14/5 3/15/5
f 4/16/6 6/17/6 8/18/6
f 2/1/1 4/19/1 3/2/1
f 4/4/2 8/20/2 7/5/2
f 8/7/3 6/21/3 5/8/3
f 6/10/4 2/22/4 1/11/4
f 7/13/5 5/23/5 1/14/5
f 4/16/6 2/24/6 6/17/6
